<svg width="75" height="75" viewBox="0 0 75 75" fill="none" xmlns="http://www.w3.org/2000/svg">
<circle cx="37.5" cy="37.5" r="37.5" fill="#D9D9D9"/>
<path d="M3.55273 39.6875C3.55273 39.3503 3.57552 39.0723 3.62109 38.8535L11.7012 33.0566C11.9564 33.1569 12.2572 33.4121 12.6035 33.8223C12.959 34.2233 13.278 34.6654 13.5605 35.1484C13.8522 35.6315 14.0391 36.0326 14.1211 36.3516L8.70703 41.1094L14.3945 45.2383C14.2669 45.7669 13.9889 46.3275 13.5605 46.9199C13.1413 47.5124 12.7311 47.9271 12.3301 48.1641L4.38672 43.6113C4.15885 43.3561 3.96289 42.8184 3.79883 41.998C3.63477 41.1777 3.55273 40.4076 3.55273 39.6875ZM20.3965 26.084C20.6426 26.002 20.9798 25.9609 21.4082 25.9609C22.0462 25.9609 22.7435 26.0475 23.5 26.2207C24.2565 26.3848 24.8307 26.5898 25.2227 26.8359L19.6855 49.5176H19.4395C18.7832 49.5176 18.1816 49.4355 17.6348 49.2715C17.0879 49.1074 16.5684 48.8568 16.0762 48.5195L20.3965 26.084ZM26.1387 44.9648C26.1387 44.5 26.2161 44.0215 26.3711 43.5293C27.1549 43.3105 27.8887 43.2057 28.5723 43.2148C28.3991 41.4375 28.2533 39.4961 28.1348 37.3906C28.0163 35.276 27.9342 33.3255 27.8887 31.5391H27.875L25.9199 31.252C25.8014 30.9147 25.7103 30.541 25.6465 30.1309C25.5827 29.7207 25.5508 29.3242 25.5508 28.9414C25.5508 28.6497 25.5736 28.3307 25.6191 27.9844C26.5944 27.556 28.1257 27.2552 30.2129 27.082C32.3001 26.8997 34.3737 26.8086 36.4336 26.8086C37.819 26.8086 38.9948 26.918 39.9609 27.1367C40.9271 27.3555 41.7337 27.8522 42.3809 28.627C43.0371 29.3926 43.3652 30.541 43.3652 32.0723C43.3652 34.9069 42.6816 38.6257 41.3145 43.2285C41.0866 43.985 40.8314 44.6641 40.5488 45.2656C40.2663 45.8672 39.9062 46.3867 39.4688 46.8242C39.0951 47.2435 38.7077 47.5625 38.3066 47.7812C37.9147 47.9909 37.4408 48.0957 36.8848 48.0957C36.6022 48.0957 36.2194 48.0501 35.7363 47.959C35.1348 47.8405 34.6016 47.6901 34.1367 47.5078C33.6719 47.3164 33.2845 47.125 32.9746 46.9336C32.6738 46.7422 32.3138 46.5007 31.8945 46.209C31.7122 46.4733 31.4069 46.765 30.9785 47.084C30.5592 47.403 30.0944 47.6764 29.584 47.9043C29.0736 48.1322 28.5996 48.2552 28.1621 48.2734C27.5332 48.0365 27.0365 47.6172 26.6719 47.0156C26.3164 46.4049 26.1387 45.7214 26.1387 44.9648ZM36.666 43.1055C36.9212 41.8477 37.1217 40.3893 37.2676 38.7305C37.4134 37.0625 37.5365 35.2624 37.6367 33.3301L37.6914 32.3594C37.6367 32.2591 37.4134 32.1589 37.0215 32.0586C36.6387 31.9583 36.1328 31.9082 35.5039 31.9082L34.4375 31.8945C33.9271 31.8945 33.5169 31.9173 33.207 31.9629C33.207 32.3457 33.2116 32.6693 33.2207 32.9336C33.248 34.5195 33.2617 35.9368 33.2617 37.1855C33.2617 38.6348 33.248 40.6947 33.2207 43.3652C34.4147 43.3652 35.5632 43.2786 36.666 43.1055ZM44.2676 44.6504C44.2676 43.8392 44.4362 43.0508 44.7734 42.2852C44.9284 42.2852 45.1699 42.3171 45.498 42.3809C45.8353 42.4355 46.1862 42.5085 46.5508 42.5996C46.4961 40.1387 46.4688 38.1198 46.4688 36.543C46.4688 34.5833 46.5052 32.9108 46.5781 31.5254L44.4727 31.2383C44.3542 30.901 44.263 30.5319 44.1992 30.1309C44.1354 29.7207 44.1035 29.3242 44.1035 28.9414C44.1035 28.6497 44.1263 28.3307 44.1719 27.9844C45.2565 27.5742 46.6829 27.278 48.4512 27.0957C50.2285 26.9043 52.0195 26.8086 53.8242 26.8086C55.5286 26.8086 56.7637 26.8861 57.5293 27.041C58.0215 27.3418 58.4499 27.6471 58.8145 27.957C59.1882 28.2578 59.5436 28.6315 59.8809 29.0781C59.8809 29.7161 59.8171 30.4089 59.6895 31.1562C59.571 31.8945 59.4023 32.5736 59.1836 33.1934C58.974 33.8132 58.7461 34.2598 58.5 34.5332C58.2904 34.6335 58.0579 34.7109 57.8027 34.7656C57.5475 34.8112 57.2331 34.834 56.8594 34.834C56.5312 34.834 56.2487 34.8066 56.0117 34.752C55.7839 34.6882 55.5651 34.597 55.3555 34.4785L54.8906 31.498C54.3164 31.4069 53.6328 31.3613 52.8398 31.3613C52.6211 31.3613 52.4023 31.375 52.1836 31.4023C52.1471 32.724 51.9603 34.5241 51.623 36.8027C53.6465 36.4655 55.3737 36.2194 56.8047 36.0645C57.1693 36.6204 57.3516 37.2995 57.3516 38.1016C57.3516 38.6302 57.2786 39.1406 57.1328 39.6328C56.987 40.125 56.8275 40.4668 56.6543 40.6582C56.2715 40.722 55.8158 40.7539 55.2871 40.7539C54.6035 40.7539 53.8926 40.6947 53.1543 40.5762C52.4251 40.4577 51.7415 40.2845 51.1035 40.0566L50.9258 41.2188C50.8164 41.8659 50.7207 42.5039 50.6387 43.1328L59.293 42.627C59.4297 42.7546 59.5436 43.0098 59.6348 43.3926C59.735 43.7754 59.7852 44.1947 59.7852 44.6504C59.7852 45.3796 59.6393 46.0176 59.3477 46.5645C59.056 47.1113 58.6686 47.5352 58.1855 47.8359C57.7116 48.1276 57.2012 48.2734 56.6543 48.2734C56.1074 48.2734 55.36 48.1549 54.4121 47.918C53.4733 47.6719 52.5573 47.3665 51.6641 47.002C50.7799 46.6374 50.1283 46.2865 49.709 45.9492C49.2897 46.6784 48.8294 47.2344 48.3281 47.6172C47.8359 48 47.1979 48.2188 46.4141 48.2734C46.0221 48.2096 45.6621 48.0091 45.334 47.6719C45.0059 47.3346 44.7461 46.9017 44.5547 46.373C44.3633 45.8444 44.2676 45.2702 44.2676 44.6504ZM71.4473 41.2598C71.4473 41.597 71.4245 41.875 71.3789 42.0938L63.2988 47.8906C63.0436 47.7904 62.7383 47.5397 62.3828 47.1387C62.0365 46.7285 61.7174 46.2819 61.4258 45.7988C61.1432 45.3158 60.9609 44.9147 60.8789 44.5957L66.293 39.8379L60.6055 35.709C60.7331 35.1803 61.0065 34.6198 61.4258 34.0273C61.8542 33.4349 62.2689 33.0202 62.6699 32.7832L70.6133 37.3359C70.8411 37.5911 71.0371 38.1289 71.2012 38.9492C71.3652 39.7695 71.4473 40.5397 71.4473 41.2598Z" fill="black"/>
</svg>
