<svg width="32" height="32" viewBox="0 0 32 32" fill="none" xmlns="http://www.w3.org/2000/svg">
<g id="SVG">
<path id="Vector" d="M26.3104 10.978C25.9698 10.8611 25.6264 10.7529 25.2804 10.6534C25.3385 10.4159 25.392 10.1812 25.4395 9.95073C26.2193 6.1656 25.7095 3.11623 23.9684 2.11223C22.299 1.14973 19.5689 2.15335 16.8116 4.55298C16.5399 4.7899 16.2742 5.03364 16.0147 5.28398C15.8411 5.11751 15.6643 4.95427 15.4846 4.79435C12.5949 2.2286 9.69837 1.14723 7.95913 2.1541C6.29125 3.1196 5.79737 5.98623 6.49937 9.57348C6.56922 9.92876 6.64808 10.2822 6.73588 10.6335C6.32588 10.75 5.93025 10.874 5.55162 11.006C2.16362 12.1872 0 14.0384 0 15.9585C0 17.9416 2.32275 19.9307 5.8515 21.1369C6.13758 21.2342 6.42605 21.3245 6.71663 21.4075C6.62225 21.7858 6.53847 22.1667 6.46537 22.5497C5.79612 26.0747 6.31875 28.8736 7.98212 29.833C9.70012 30.8237 12.5836 29.8055 15.3912 27.3511C15.6189 27.1516 15.8416 26.9464 16.059 26.7357C16.3399 27.0068 16.6284 27.27 16.924 27.525C19.6437 29.8652 22.3298 30.8102 23.9915 29.8482C25.7079 28.8546 26.2658 25.8479 25.5415 22.1897C25.4844 21.9031 25.4205 21.618 25.3496 21.3345C25.5521 21.2745 25.7509 21.2127 25.9446 21.1485C29.6131 19.9331 32 17.9681 32 15.9585C32 14.0314 29.7665 12.1677 26.3104 10.978ZM25.5147 19.851C25.3398 19.9089 25.1602 19.9647 24.9772 20.0191C24.5722 18.737 24.0257 17.3737 23.3569 15.9651C23.9951 14.5901 24.5206 13.2442 24.9142 11.9705C25.2416 12.0652 25.5592 12.1651 25.8655 12.2705C28.8267 13.29 30.633 14.7971 30.633 15.9585C30.633 17.1955 28.6822 18.8014 25.5147 19.851ZM24.2005 22.4552C24.5208 24.0727 24.5664 25.5352 24.3542 26.6786C24.1637 27.706 23.7805 28.3909 23.3065 28.6652C22.2981 29.249 20.1415 28.4902 17.8156 26.4887C17.5407 26.2516 17.2724 26.007 17.011 25.755C17.9128 24.7689 18.8139 23.6225 19.6934 22.3492C21.2404 22.212 22.7019 21.9875 24.0273 21.6811C24.0925 21.9445 24.1505 22.2027 24.2005 22.4552ZM10.9095 28.5644C9.92425 28.9122 9.1395 28.9222 8.66512 28.6487C7.65575 28.0666 7.23612 25.8192 7.8085 22.8047C7.87654 22.4485 7.95444 22.0942 8.04212 21.7424C9.35287 22.0324 10.8038 22.2409 12.3544 22.3666C13.2399 23.6125 14.167 24.7576 15.1014 25.7604C14.9028 25.9525 14.6995 26.1397 14.4917 26.3219C13.2501 27.4071 12.006 28.1771 10.9095 28.5644ZM6.29375 19.8434C4.73337 19.31 3.44475 18.6169 2.5615 17.8605C1.76775 17.1809 1.36713 16.506 1.36713 15.9585C1.36713 14.7932 3.10425 13.307 6.00163 12.2969C6.35325 12.1744 6.72125 12.0587 7.10313 11.9502C7.50362 13.2527 8.02888 14.6146 8.66275 15.9917C8.02063 17.3892 7.48787 18.7729 7.0835 20.0907C6.81826 20.0148 6.55493 19.9323 6.29375 19.8434ZM7.841 9.31085C7.23962 6.23748 7.639 3.9191 8.64412 3.33723C9.71463 2.71748 12.0819 3.6011 14.577 5.8166C14.7397 5.9614 14.8998 6.10913 15.0571 6.25973C14.1274 7.2581 13.2087 8.39473 12.3311 9.63323C10.8261 9.77273 9.3855 9.99673 8.061 10.2969C7.9794 9.97013 7.90604 9.64127 7.841 9.31085ZM21.6444 12.7194C21.3315 12.179 21.0071 11.6454 20.6712 11.119C21.6922 11.2481 22.6705 11.4195 23.5891 11.629C23.3134 12.513 22.9696 13.4371 22.565 14.3846C22.2692 13.8234 21.9623 13.2683 21.6444 12.7194ZM16.0154 7.23673C16.6459 7.91985 17.2774 8.68248 17.8985 9.50998C16.6385 9.45047 15.3764 9.45022 14.1164 9.50923C14.7381 8.68935 15.375 7.92773 16.0154 7.23673ZM10.3503 12.7287C10.0363 13.2732 9.73509 13.8249 9.44687 14.3835C9.04887 13.4394 8.70825 12.511 8.43013 11.6145C9.34313 11.4102 10.3168 11.2432 11.3313 11.1165C10.9917 11.6461 10.6646 12.1837 10.3503 12.7287ZM11.3604 20.8977C10.3123 20.7807 9.324 20.6224 8.41125 20.4236C8.69375 19.5111 9.04187 18.563 9.4485 17.5986C9.73785 18.1576 10.0403 18.7096 10.3556 19.2544C10.6799 19.8144 11.0156 20.3629 11.3604 20.8977ZM16.0531 24.7765C15.4051 24.0775 14.7589 23.3041 14.1278 22.4724C14.7405 22.4964 15.3651 22.5086 16 22.5086C16.6523 22.5086 17.297 22.494 17.9316 22.4657C17.3085 23.3125 16.6794 24.087 16.0531 24.7765ZM22.5779 17.5494C23.0056 18.5244 23.3661 19.4675 23.6524 20.3644C22.7246 20.5761 21.7229 20.7466 20.6674 20.8732C21.0056 20.337 21.3331 19.7942 21.6497 19.245C21.9717 18.6867 22.2811 18.1214 22.5779 17.5494ZM20.4656 18.562C19.9809 19.404 19.4689 20.2301 18.9305 21.0389C17.9552 21.1079 16.9777 21.1422 16 21.1417C15.0041 21.1417 14.0355 21.1107 13.1027 21.0502C12.5503 20.2433 12.0285 19.4158 11.5386 18.5695C11.051 17.7276 10.5957 16.8675 10.1734 15.9911C10.5946 15.1145 11.0487 14.254 11.5346 13.4115L11.5345 13.4116C12.0202 12.5689 12.5378 11.7449 13.0861 10.9415C14.0378 10.8695 15.0136 10.832 15.9999 10.832C16.9906 10.832 17.9679 10.8699 18.9193 10.9424C19.462 11.7446 19.9763 12.5657 20.4611 13.4042C20.9487 14.2449 21.4088 15.1012 21.8406 15.9717C21.4132 16.8512 20.9546 17.7152 20.4656 18.562ZM23.2856 3.29648C24.3571 3.91448 24.7739 6.4066 24.1006 9.67473C24.0576 9.88323 24.0094 10.0956 23.9569 10.311C22.6291 10.0045 21.1875 9.7766 19.6781 9.63498C18.7989 8.38285 17.8878 7.24448 16.9731 6.25898C17.2128 6.02792 17.4582 5.80285 17.7091 5.58398C20.0716 3.5281 22.2796 2.71635 23.2856 3.29648ZM16 13.101C17.5781 13.101 18.8575 14.3804 18.8575 15.9585C18.8575 17.5366 17.5781 18.816 16 18.816C14.4219 18.816 13.1425 17.5366 13.1425 15.9585C13.1425 14.3804 14.4219 13.101 16 13.101Z" fill="#00D8FF"/>
</g>
</svg>
